<svg width="35" height="28" viewBox="0 0 35 28" fill="none" xmlns="http://www.w3.org/2000/svg">
<path fill-rule="evenodd" clip-rule="evenodd" d="M17.5024 3.86345C14.1384 3.86345 11.4114 6.50599 11.4114 9.76572C11.4114 13.0255 14.1384 15.668 17.5024 15.668C20.8663 15.668 23.5934 13.0255 23.5934 9.76572C23.5934 6.50599 20.8663 3.86345 17.5024 3.86345ZM14.892 17.3544C11.0475 17.3544 7.93086 20.3744 7.93086 24.0998C7.93086 25.9625 9.48916 27.4725 11.4114 27.4725H23.5934C25.5156 27.4725 27.0739 25.9625 27.0739 24.0998C27.0739 20.3744 23.9573 17.3544 20.1128 17.3544H14.892Z" fill="#666666"/>
<path fill-rule="evenodd" clip-rule="evenodd" d="M26.7594 12.1327C26.9646 11.3771 27.0739 10.5838 27.0739 9.76572C27.0739 6.17687 24.9704 3.06409 21.893 1.52192C22.8719 0.871364 24.0569 0.490723 25.3336 0.490723C28.6976 0.490723 31.4246 3.13326 31.4246 6.393C31.4246 9.17694 29.4356 11.5107 26.7594 12.1327ZM30.5545 24.0998H31.4246C33.3469 24.0998 34.9052 22.5898 34.9052 20.7271C34.9052 17.0017 31.7886 13.9816 27.9441 13.9816H26.0303C25.7923 14.4326 25.5175 14.8622 25.2095 15.2668C28.3988 16.9985 30.5545 20.3052 30.5545 24.0998Z" fill="#666666"/>
<path fill-rule="evenodd" clip-rule="evenodd" d="M3.58017 6.393C3.58017 3.13326 6.30719 0.490723 9.67114 0.490723C10.9479 0.490723 12.1328 0.871364 13.1118 1.52192C10.0344 3.06409 7.93086 6.17687 7.93086 9.76572C7.93086 10.5838 8.04015 11.3771 8.24535 12.1327C5.56922 11.5107 3.58017 9.17694 3.58017 6.393ZM8.97452 13.9816H7.06072C3.21621 13.9816 0.0996094 17.0017 0.0996094 20.7271C0.0996094 22.5898 1.65791 24.0998 3.58017 24.0998H4.4503C4.4503 20.3052 6.60594 16.9985 9.79532 15.2668C9.48733 14.8622 9.21243 14.4326 8.97452 13.9816Z" fill="#666666"/>
</svg>
