<svg width="31" height="25" viewBox="0 0 31 25" fill="none" xmlns="http://www.w3.org/2000/svg">
<path fill-rule="evenodd" clip-rule="evenodd" d="M15.4199 3.6802C12.4564 3.6802 10.054 6.00815 10.054 8.87982C10.054 11.7515 12.4564 14.0794 15.4199 14.0794C18.3834 14.0794 20.7857 11.7515 20.7857 8.87982C20.7857 6.00815 18.3834 3.6802 15.4199 3.6802ZM13.1202 15.565C9.7334 15.565 6.98783 18.2256 6.98783 21.5075C6.98783 23.1484 8.36061 24.4787 10.054 24.4787H20.7857C22.4792 24.4787 23.8519 23.1484 23.8519 21.5075C23.8519 18.2256 21.1064 15.565 17.7195 15.565H13.1202Z" fill="white"/>
<path fill-rule="evenodd" clip-rule="evenodd" d="M23.5749 10.965C23.7557 10.2993 23.8519 9.60047 23.8519 8.87982C23.8519 5.71821 21.9989 2.976 19.2878 1.61742C20.1502 1.04431 21.1941 0.708984 22.3188 0.708984C25.2823 0.708984 27.6847 3.03693 27.6847 5.90861C27.6847 8.36113 25.9324 10.4171 23.5749 10.965ZM26.9182 21.5075H27.6847C29.3781 21.5075 30.7509 20.1772 30.7509 18.5363C30.7509 15.2543 28.0053 12.5938 24.6185 12.5938H22.9325C22.7229 12.9911 22.4808 13.3696 22.2094 13.726C25.0191 15.2515 26.9182 18.1646 26.9182 21.5075Z" fill="white"/>
<path fill-rule="evenodd" clip-rule="evenodd" d="M3.15507 5.90861C3.15507 3.03693 5.55745 0.708984 8.52093 0.708984C9.64566 0.708984 10.6896 1.04431 11.552 1.61742C8.8409 2.976 6.98783 5.71821 6.98783 8.87982C6.98783 9.60047 7.08411 10.2993 7.26488 10.965C4.90733 10.4171 3.15507 8.36113 3.15507 5.90861ZM7.90724 12.5938H6.22128C2.83444 12.5938 0.0888672 15.2543 0.0888672 18.5363C0.0888672 20.1772 1.46165 21.5075 3.15507 21.5075H3.92162C3.92162 18.1646 5.82064 15.2515 8.63033 13.726C8.359 13.3696 8.11683 12.9911 7.90724 12.5938Z" fill="white"/>
</svg>
