<svg width="21" height="27" viewBox="0 0 21 27" fill="none" xmlns="http://www.w3.org/2000/svg">
<path d="M2.50763 26.7569H17.538C19.1995 26.7569 20.1687 25.9123 20.1687 24.3518V23.9223C20.1841 19.9281 15.5381 16.6783 13.6612 15.0177C13.1074 14.5023 12.7843 14.0442 12.7843 13.357C12.7843 12.6698 13.092 12.2403 13.6612 11.7106C15.5227 10.0213 20.1687 6.92902 20.1687 2.80597V2.40512C20.1687 0.844654 19.1995 0 17.538 0H2.50763C0.892285 0 0 0.844654 0 2.3049V2.80597C0 6.92902 4.64603 10.0213 6.49214 11.7106C7.07674 12.2403 7.38442 12.6698 7.38442 13.357C7.38442 14.0442 7.06136 14.5023 6.49214 15.0177C4.63065 16.6783 0 19.9281 0 23.9223V24.452C0 25.9123 0.892285 26.7569 2.50763 26.7569ZM4.24604 24.495C3.44606 24.495 3.18453 23.6503 3.92298 23.1349L9.10746 19.5129C9.27668 19.3984 9.38437 19.2839 9.38437 19.0834V12.0399C9.38437 11.2811 9.19976 10.8946 8.59978 10.4078C7.78441 9.74931 6.07677 8.5897 5.27679 7.60188C4.9691 7.21535 4.99987 6.90039 5.36909 6.90039H14.7842C15.1535 6.90039 15.1996 7.21535 14.8919 7.60188C14.0919 8.5897 12.3843 9.74931 11.5535 10.4078C10.9536 10.8803 10.7843 11.2811 10.7843 12.0399V19.0834C10.7843 19.2839 10.892 19.3984 11.0613 19.5129L16.2457 23.1349C16.9996 23.6503 16.7073 24.495 15.9227 24.495H4.24604Z" fill="#E1E1E1"/>
</svg>
